<svg width="39" height="39" viewBox="0 0 39 39" fill="none" xmlns="http://www.w3.org/2000/svg">
<path d="M0.846573 16.9141C0.690502 18.7421 1.14456 20.5312 2.12461 21.952C2.79528 22.9246 3.68452 23.6695 4.68895 24.1236C5.37219 24.4326 5.67332 25.2467 5.33288 25.9146C4.89494 26.7736 4.62133 27.7199 4.53681 28.7109C4.36462 30.7249 4.86546 32.7966 6.29131 34.2296C8.67756 36.6272 13.6773 38.0197 18.0449 38.4112C22.4125 38.8028 27.2223 38.4289 30.3185 36.2738C31.8737 35.1915 32.7005 33.3545 32.9458 31.4895C33.09 30.3899 32.9886 29.2865 32.6674 28.2533C32.4449 27.5375 32.8656 26.7831 33.5921 26.5967C34.6668 26.3207 35.6776 25.7354 36.5082 24.8843C37.7139 23.6499 38.4632 21.9638 38.6193 20.1373C38.7754 18.3097 38.3213 16.5206 37.3413 15.0995C36.2786 13.5592 34.6676 12.5906 32.9202 12.4412H32.9151C32.908 12.44 32.9013 12.4396 32.8943 12.4392C32.0601 12.372 31.4916 11.5586 31.7381 10.7586C31.9071 10.2094 32.0196 9.63508 32.0699 9.04579C32.226 7.21778 31.7719 5.42868 30.7918 4.00794C29.7296 2.46729 28.1178 1.49864 26.37 1.34926H26.3645C24.6187 1.20144 22.8677 1.88469 21.561 3.22209C21.5264 3.25747 21.4922 3.29324 21.4587 3.32902C21.217 3.5873 20.8018 3.55192 20.6076 3.25629C20.5801 3.21423 20.5522 3.17295 20.5235 3.13128C19.4605 1.59142 17.8495 0.622373 16.1021 0.472987H16.0958C14.3499 0.325173 12.5989 1.00763 11.2922 2.34543C10.0865 3.57983 9.33643 5.26593 9.18076 7.09237C9.13044 7.68127 9.14341 8.26663 9.21732 8.83665C9.32464 9.66614 8.62724 10.3722 7.79422 10.2967C7.78517 10.2959 7.77653 10.2951 7.76748 10.2943H7.76198C6.01573 10.1465 4.26477 10.8298 2.95842 12.1672C1.75272 13.4016 1.00264 15.0869 0.846966 16.9137L0.846573 16.9141Z" fill="black"/>
<path d="M18.2636 37.9679C20.6022 38.1648 22.7585 38.1177 24.673 37.8275C26.8769 37.4934 28.6852 36.8432 30.0478 35.8946C31.8164 34.6637 32.3322 32.5672 32.4824 31.4267C32.6153 30.4156 32.5248 29.364 32.2206 28.3863C32.0751 27.9189 32.1266 27.4263 32.3644 26.9998C32.6027 26.5732 32.9946 26.2713 33.4687 26.1495C34.4735 25.8916 35.408 25.3424 36.171 24.5609C37.3025 23.4027 38.0065 21.8169 38.1532 20.095C38.3002 18.3735 37.8744 16.6905 36.9545 15.3563C35.9702 13.9293 34.4822 13.0322 32.8716 12.8946L32.8409 12.8922C32.3 12.8466 31.816 12.5632 31.5129 12.115C31.215 11.6735 31.1336 11.1287 31.2904 10.6204C31.4508 10.0991 31.5562 9.55539 31.6038 9.00344C31.7508 7.28157 31.325 5.59862 30.4051 4.26475C29.4211 2.83772 27.9328 1.94022 26.3218 1.80263H26.3167C24.7076 1.66661 23.0903 2.29954 21.8795 3.53905C21.8473 3.57207 21.8154 3.6051 21.784 3.6389C21.5725 3.86495 21.2749 3.97974 20.9678 3.95379C20.6608 3.92785 20.3856 3.76431 20.215 3.50524C20.1891 3.46593 20.1631 3.42701 20.1364 3.38849C19.152 1.96145 17.664 1.06396 16.0542 0.926363H16.0487C14.4397 0.790343 12.8224 1.42327 11.6115 2.66239C10.4797 3.82092 9.77567 5.40677 9.62903 7.12786C9.58186 7.6798 9.59365 8.23371 9.66323 8.77425C9.73124 9.30104 9.55945 9.82389 9.19149 10.2084C8.81841 10.5983 8.29478 10.7961 7.75541 10.7509L7.71492 10.7473C6.10548 10.6117 4.48817 11.2446 3.27775 12.4841C2.14595 13.6427 1.44188 15.2285 1.29485 16.9492C1.14782 18.6711 1.57357 20.3541 2.49348 21.6879C3.1095 22.5811 3.93112 23.2777 4.8695 23.7023C5.31491 23.9035 5.66243 24.2829 5.824 24.7425C5.9844 25.2001 5.95216 25.6891 5.73319 26.1188C5.3157 26.9373 5.0641 27.8214 4.98547 28.746C4.90174 29.7269 4.99176 30.6979 5.24611 31.5537C5.52169 32.4807 5.97968 33.2709 6.60789 33.9022C7.66224 34.9617 9.37547 35.9063 11.5612 36.6336C13.5052 37.2803 15.8191 37.7481 18.0772 37.9506C18.1393 37.9561 18.2014 37.9616 18.264 37.9667L18.2636 37.9679Z" fill="white"/>
<path d="M24.8234 34.5607C24.8922 34.5666 24.9622 34.5709 25.0314 34.5737C27.3445 34.6649 29.3934 32.9387 29.6957 30.6432C29.8864 29.193 29.3636 27.7314 28.2978 26.7332C26.6487 25.1898 25.5106 23.0615 25.0939 20.7405C24.8395 19.319 24.3532 18.164 23.6491 17.307C22.7725 16.2404 21.5396 15.6323 19.9848 15.4994L19.977 15.4986C18.4434 15.3693 17.1386 15.7632 16.0984 16.6697C15.2627 17.3982 14.5861 18.4576 14.0876 19.8186C13.29 21.9993 11.8232 23.8572 9.84584 25.1914C8.70304 25.9623 7.98048 27.192 7.86333 28.5648C7.76033 29.7717 8.13341 30.9463 8.91454 31.8721C9.69567 32.7979 10.7905 33.364 11.9982 33.4658C12.0666 33.4717 12.1362 33.4761 12.205 33.4788C12.7278 33.4997 13.2463 33.4293 13.7468 33.2697C15.2603 32.785 16.7691 32.6018 18.2307 32.7248L18.6341 32.7586C20.1967 32.8919 21.702 33.3314 23.1082 34.0646C23.6409 34.3425 24.218 34.5092 24.8234 34.5603V34.5607Z" fill="#FAB7BB"/>
<path d="M25.1649 13.1306C27.0055 13.2859 28.6621 11.5499 28.8579 9.26071C28.9538 8.1352 28.6861 7.04979 28.1031 6.20497C27.5389 5.38728 26.746 4.89588 25.8701 4.82118C24.0264 4.6659 22.3694 6.40153 22.1744 8.69068C22.0785 9.81658 22.3462 10.902 22.9288 11.7464C23.4925 12.5641 24.2855 13.0555 25.1613 13.1302H25.1649V13.1306Z" fill="#FAB7BB"/>
<path d="M15.3131 12.28C17.1545 12.4353 18.8111 10.6993 19.0065 8.41051C19.2019 6.11979 17.8617 4.12784 16.0191 3.9706C14.175 3.81531 12.518 5.55095 12.323 7.84009C12.1276 10.1308 13.4678 12.1228 15.3107 12.28H15.3135H15.3131Z" fill="#FAB7BB"/>
<path d="M7.30821 21.6999C9.14959 21.8552 10.8062 20.1192 11.0016 17.8304C11.197 15.5397 9.85682 13.5478 8.01426 13.3905C6.17012 13.2352 4.51311 14.9709 4.31812 17.26C4.12274 19.5507 5.46289 21.5427 7.30585 21.6999H7.3086H7.30821Z" fill="#FAB7BB"/>
<path d="M31.442 23.7312C33.2834 23.8865 34.94 22.1504 35.1354 19.8617C35.3308 17.571 33.9906 15.579 32.148 15.4218C30.3039 15.2665 28.6469 17.0021 28.4519 19.2913C28.2565 21.582 29.5967 23.5739 31.4396 23.7312H31.4424H31.442Z" fill="#FAB7BB"/>
</svg>
