<svg width="503" height="98" viewBox="0 0 503 98" fill="none" xmlns="http://www.w3.org/2000/svg">
<g filter="url(#filter0_d_3804_139)">
<path d="M5.39972 73.375V26.5146C5.39972 25.4824 5.73956 24.614 6.41924 23.9091C7.09893 23.2042 7.92965 22.8518 8.91142 22.8518H24.2798C25.2616 22.8518 26.193 23.2042 27.0741 23.9091C27.9552 24.614 28.5467 25.4573 28.8488 26.439L39.9881 58.6863L51.1274 26.439C51.4295 25.4573 52.021 24.614 52.9021 23.9091C53.7832 23.2042 54.7146 22.8518 55.6964 22.8518H71.0648C72.0466 22.8518 72.8647 23.2042 73.5192 23.9091C74.1989 24.614 74.5387 25.4824 74.5387 26.5146V73.375C74.5387 74.4071 74.1863 75.2756 73.4814 75.9805C72.8018 76.6602 71.971 77 70.9893 77H64.1924C63.2107 77 62.3673 76.6602 61.6625 75.9805C60.9828 75.2756 60.643 74.4071 60.643 73.375V36.4833L47.3136 73.6016C46.9612 74.533 46.3444 75.3385 45.4633 76.0182C44.5823 76.6727 43.6508 77 42.6691 77H37.2694C36.2876 77 35.3562 76.6727 34.4751 76.0182C33.6192 75.3385 33.0025 74.533 32.6249 73.6016L19.3332 36.4833V73.375C19.3332 74.4071 18.9808 75.2756 18.276 75.9805C17.5963 76.6602 16.7655 77 15.7838 77H8.98694C8.00517 77 7.16186 76.6602 6.457 75.9805C5.75214 75.2756 5.39972 74.4071 5.39972 73.375Z" fill="white"/>
<path d="M85.2961 45.1786C85.0499 48.0622 85.7661 50.8844 87.3121 53.1256C88.3701 54.6598 89.7728 55.835 91.3573 56.5512C92.4351 57.0387 92.9101 58.323 92.373 59.3766C91.6822 60.7316 91.2506 62.2242 91.1173 63.7876C90.8457 66.9646 91.6357 70.2327 93.8849 72.4931C97.6492 76.2753 105.536 78.4718 112.426 79.0895C119.315 79.7071 126.903 79.1174 131.787 75.7178C134.24 74.0105 135.544 71.1126 135.931 68.1707C136.159 66.4362 135.999 64.6955 135.492 63.0658C135.141 61.9365 135.805 60.7465 136.951 60.4525C138.646 60.0172 140.241 59.0938 141.551 57.7512C143.453 55.804 144.635 53.1442 144.881 50.2631C145.127 47.38 144.411 44.5578 142.865 42.316C141.189 39.8863 138.648 38.3583 135.891 38.1227H135.883C135.872 38.1208 135.861 38.1202 135.85 38.1196C134.534 38.0135 133.638 36.7305 134.026 35.4685C134.293 34.6021 134.47 33.6961 134.55 32.7665C134.796 29.8829 134.08 27.0607 132.534 24.8195C130.858 22.3892 128.316 20.8612 125.558 20.6255H125.55C122.796 20.3924 120.034 21.4702 117.972 23.5799C117.918 23.6357 117.864 23.6921 117.811 23.7485C117.43 24.156 116.775 24.1001 116.468 23.6338C116.425 23.5675 116.381 23.5023 116.336 23.4366C114.659 21.0075 112.118 19.4789 109.361 19.2432H109.351C106.597 19.0101 103.835 20.0866 101.774 22.197C99.8717 24.1442 98.6885 26.8039 98.4429 29.6851C98.3636 30.6141 98.384 31.5374 98.5006 32.4366C98.6699 33.7451 97.5698 34.8589 96.2557 34.7398C96.2415 34.7386 96.2278 34.7373 96.2136 34.7361H96.2049C93.4502 34.5029 90.6881 35.5807 88.6274 37.6904C86.7255 39.6377 85.5422 42.2962 85.2967 45.1779L85.2961 45.1786Z" fill="black"/>
<path d="M112.77 78.39C116.46 78.7007 119.861 78.6263 122.881 78.1686C126.358 77.6415 129.21 76.6158 131.36 75.1194C134.15 73.1778 134.963 69.8706 135.2 68.0716C135.41 66.4766 135.267 64.8177 134.787 63.2755C134.558 62.5381 134.639 61.7611 135.014 61.0882C135.39 60.4154 136.008 59.9391 136.756 59.7469C138.341 59.3401 139.815 58.4737 141.019 57.2409C142.804 55.414 143.914 52.9124 144.146 50.1962C144.377 47.4806 143.706 44.8258 142.255 42.721C140.702 40.47 138.355 39.0548 135.814 38.8378L135.766 38.834C134.912 38.7621 134.149 38.315 133.671 37.608C133.201 36.9116 133.072 36.0521 133.32 35.2503C133.573 34.428 133.739 33.5703 133.814 32.6996C134.046 29.9835 133.374 27.3286 131.923 25.2245C130.371 22.9734 128.023 21.5577 125.482 21.3406H125.474C122.936 21.1261 120.384 22.1245 118.474 24.0798C118.424 24.1318 118.373 24.1839 118.324 24.2373C117.99 24.5939 117.521 24.7749 117.036 24.734C116.552 24.6931 116.118 24.4351 115.849 24.0264C115.808 23.9644 115.767 23.903 115.725 23.8422C114.172 21.5912 111.825 20.1754 109.285 19.9583H109.277C106.738 19.7438 104.187 20.7422 102.277 22.6969C100.492 24.5244 99.381 27.026 99.1497 29.741C99.0753 30.6116 99.0939 31.4854 99.2036 32.3381C99.3109 33.1691 99.0399 33.9939 98.4595 34.6004C97.871 35.2155 97.0449 35.5275 96.1941 35.4562L96.1303 35.4506C93.5914 35.2366 91.0402 36.235 89.1308 38.1903C87.3454 40.0179 86.2347 42.5195 86.0028 45.2338C85.7709 47.95 86.4425 50.6048 87.8936 52.709C88.8654 54.1179 90.1614 55.2168 91.6417 55.8865C92.3443 56.204 92.8925 56.8025 93.1474 57.5274C93.4004 58.2492 93.3496 59.0207 93.0041 59.6985C92.3456 60.9896 91.9487 62.3843 91.8246 63.8429C91.6926 65.3901 91.8346 66.9218 92.2358 68.2719C92.6705 69.7342 93.393 70.9806 94.3839 71.9766C96.0471 73.6478 98.7497 75.138 102.198 76.2853C105.264 77.3054 108.914 78.0434 112.476 78.3627C112.574 78.3714 112.672 78.3801 112.771 78.3882L112.77 78.39Z" fill="white"/>
<path d="M123.118 73.0148C123.227 73.0242 123.337 73.031 123.446 73.0353C127.095 73.1792 130.327 70.4562 130.804 66.8352C131.105 64.5475 130.28 62.2418 128.599 60.6673C125.998 58.2327 124.202 54.8753 123.545 51.214C123.144 48.9716 122.377 47.1496 121.266 45.7977C119.883 44.1153 117.938 43.1559 115.486 42.9463L115.473 42.9451C113.054 42.7411 110.996 43.3624 109.355 44.7925C108.037 45.9416 106.969 47.6128 106.183 49.7598C104.925 53.1996 102.611 56.1304 99.4918 58.2351C97.689 59.4512 96.5492 61.391 96.3644 63.5565C96.202 65.4604 96.7905 67.3133 98.0227 68.7737C99.2549 70.2342 100.982 71.1272 102.887 71.2878C102.995 71.2971 103.105 71.3039 103.213 71.3082C104.038 71.3411 104.856 71.2301 105.645 70.9783C108.033 70.2137 110.413 69.9247 112.719 70.1188L113.355 70.1721C115.82 70.3824 118.194 71.0757 120.413 72.2322C121.253 72.6707 122.163 72.9336 123.118 73.0142V73.0148Z" fill="#FAB7BB"/>
<path d="M123.658 39.2109C126.561 39.4559 129.175 36.7174 129.484 33.1063C129.635 31.3309 129.213 29.6187 128.293 28.286C127.403 26.9961 126.152 26.221 124.771 26.1031C121.862 25.8582 119.248 28.5961 118.941 32.2071C118.789 33.9832 119.212 35.6954 120.131 37.0274C121.02 38.3173 122.271 39.0925 123.652 39.2103H123.658V39.2109Z" fill="#FAB7BB"/>
<path d="M108.117 37.8691C111.021 38.1141 113.635 35.3756 113.943 31.7651C114.251 28.1516 112.137 25.0094 109.23 24.7613C106.321 24.5164 103.707 27.2543 103.4 30.8653C103.092 34.4789 105.206 37.6211 108.113 37.8691H108.117H108.117Z" fill="#FAB7BB"/>
<path d="M95.4887 52.7275C98.3934 52.9725 101.007 50.234 101.315 46.6235C101.623 43.01 99.509 39.8678 96.6025 39.6197C93.6934 39.3748 91.0795 42.1127 90.7719 45.7237C90.4637 49.3373 92.5778 52.4795 95.485 52.7275H95.4893H95.4887Z" fill="#FAB7BB"/>
<path d="M133.559 55.9316C136.464 56.1766 139.077 53.4381 139.385 49.8276C139.693 46.2141 137.579 43.0719 134.673 42.8238C131.764 42.5789 129.15 45.3168 128.842 48.9278C128.534 52.5414 130.648 55.6836 133.555 55.9316H133.56H133.559Z" fill="#FAB7BB"/>
<g filter="url(#filter1_d_3804_139)">
<mask id="path-9-outside-1_3804_139" maskUnits="userSpaceOnUse" x="153.662" y="21" width="346" height="58" fill="black">
<rect fill="white" x="153.662" y="21" width="346" height="58"/>
<path d="M155.062 73.375V26.3635C155.062 25.3817 155.414 24.551 156.119 23.8713C156.824 23.1916 157.667 22.8518 158.649 22.8518H202.187C203.168 22.8518 203.999 23.2042 204.679 23.9091C205.384 24.614 205.736 25.4573 205.736 26.439V29.9885C205.736 30.9703 205.384 31.8136 204.679 32.5184C203.999 33.1981 203.168 33.538 202.187 33.538H169.297V44.5262H197.618C198.599 44.5262 199.43 44.8786 200.11 45.5835C200.815 46.2632 201.167 47.0939 201.167 48.0757V51.6251C201.167 52.6069 200.815 53.4502 200.11 54.1551C199.43 54.8347 198.599 55.1746 197.618 55.1746H169.297V66.3139H202.111C203.068 66.3139 203.886 66.6537 204.566 67.3334C205.245 68.0131 205.585 68.8438 205.585 69.8256V73.4505C205.585 74.4323 205.233 75.2756 204.528 75.9805C203.823 76.6602 202.98 77 201.998 77H158.649C157.667 77 156.824 76.6602 156.119 75.9805C155.414 75.2756 155.062 74.4071 155.062 73.375ZM208.228 26.0237C208.102 25.7216 208.039 25.3817 208.039 25.0041C208.039 24.6014 208.253 24.1482 208.681 23.6448C209.134 23.1161 209.802 22.8518 210.683 22.8518H218.952C219.934 22.8518 220.84 23.1916 221.671 23.8713C222.502 24.551 223.093 25.4069 223.446 26.439L233.414 56.3451L242.628 26.439C243.358 24.0475 244.856 22.8518 247.121 22.8518H254.069C256.335 22.8518 257.833 24.0475 258.563 26.439L267.776 56.3451L277.745 26.439C278.097 25.4069 278.689 24.551 279.52 23.8713C280.35 23.1916 281.257 22.8518 282.238 22.8518H290.508C291.364 22.8518 292.006 23.1161 292.434 23.6448C292.887 24.1482 293.113 24.6014 293.113 25.0041C293.113 25.3817 293.063 25.7216 292.962 26.0237L276.121 73.1485C275.19 75.7162 273.377 77 270.684 77H265.208C262.414 77 260.614 75.7162 259.809 73.1485L250.595 44.0731L241.382 73.1485C240.551 75.7162 238.751 77 235.982 77H230.469C227.801 77 226.001 75.7162 225.069 73.1485L208.228 26.0237ZM299.306 26.439C299.306 25.4573 299.658 24.614 300.363 23.9091C301.068 23.2042 301.911 22.8518 302.893 22.8518H333.592C341.119 22.8518 346.67 25.0167 350.245 29.3466C352.233 31.7381 353.228 34.7966 353.228 38.5223C353.228 42.2228 351.528 45.4576 348.13 48.2267C352.963 50.8196 355.38 54.8473 355.38 60.31C355.38 65.7726 353.442 69.9262 349.565 72.7709C345.713 75.5903 340.981 77 335.367 77H302.893C301.911 77 301.068 76.6602 300.363 75.9805C299.658 75.2756 299.306 74.4323 299.306 73.4505V26.439ZM313.542 66.8047H335.14C337.079 66.8047 338.564 66.2257 339.596 65.0678C340.628 63.9098 341.144 62.3239 341.144 60.31C341.144 58.2961 340.628 56.7102 339.596 55.5522C338.564 54.3942 337.079 53.8152 335.14 53.8152H313.542V66.8047ZM313.542 43.8843H333.743C335.329 43.8843 336.601 43.4186 337.557 42.4871C338.514 41.5305 338.992 40.2089 338.992 38.5223C338.992 36.8105 338.514 35.4763 337.557 34.5197C336.601 33.5631 335.329 33.0848 333.743 33.0848H313.542V43.8843ZM363.121 73.5261V26.439C363.121 25.4573 363.473 24.614 364.178 23.9091C364.883 23.2042 365.726 22.8518 366.708 22.8518H373.731C374.764 22.8518 375.619 23.2042 376.299 23.9091C377.004 24.614 377.356 25.4573 377.356 26.439V73.4505C377.356 74.4323 376.991 75.2756 376.261 75.9805C375.556 76.6602 374.713 77 373.731 77H366.708C365.726 77 364.883 76.6727 364.178 76.0182C363.473 75.3385 363.121 74.5078 363.121 73.5261ZM388.194 73.375V26.3635C388.194 25.3817 388.546 24.551 389.251 23.8713C389.956 23.1916 390.799 22.8518 391.781 22.8518H435.318C436.3 22.8518 437.131 23.2042 437.811 23.9091C438.515 24.614 438.868 25.4573 438.868 26.439V29.9885C438.868 30.9703 438.515 31.8136 437.811 32.5184C437.131 33.1981 436.3 33.538 435.318 33.538H402.429V44.5262H430.749C431.731 44.5262 432.562 44.8786 433.242 45.5835C433.946 46.2632 434.299 47.0939 434.299 48.0757V51.6251C434.299 52.6069 433.946 53.4502 433.242 54.1551C432.562 54.8347 431.731 55.1746 430.749 55.1746H402.429V66.3139H435.243C436.199 66.3139 437.018 66.6537 437.697 67.3334C438.377 68.0131 438.717 68.8438 438.717 69.8256V73.4505C438.717 74.4323 438.364 75.2756 437.66 75.9805C436.955 76.6602 436.111 77 435.13 77H391.781C390.799 77 389.956 76.6602 389.251 75.9805C388.546 75.2756 388.194 74.4071 388.194 73.375ZM442.719 63.142C442.719 61.6568 443.16 60.5995 444.041 59.9701C444.922 59.3156 445.778 58.9884 446.609 58.9884H451.102C453.368 58.9884 455.092 60.2219 456.275 62.6889C457.458 65.1559 460.114 66.3894 464.243 66.3894L477.459 66.6537C481.889 66.6537 484.105 65.2062 484.105 62.3113C484.105 60.1212 481.398 58.3968 475.986 57.1381C473.57 56.5591 470.901 55.9927 467.981 55.4389C465.061 54.8599 462.153 54.1425 459.258 53.2866C456.389 52.4307 453.745 51.4237 451.329 50.2657C448.912 49.1078 446.949 47.5218 445.438 45.508C443.953 43.4689 443.21 41.0774 443.21 38.3335C443.21 33.2736 445.01 29.3843 448.61 26.6656C452.21 23.9217 458.402 22.5497 467.188 22.5497L476.779 22.7763C481.94 22.7763 486.584 24.1105 490.713 26.7789C494.866 29.4221 496.943 32.7324 496.943 36.7098C496.943 38.1951 496.503 39.2649 495.621 39.9194C494.74 40.5739 493.897 40.9012 493.092 40.9012H488.598C486.332 40.9012 484.608 39.6677 483.425 37.2007C482.242 34.7085 479.586 33.4624 475.458 33.4624L464.092 33.2359C459.661 33.2359 457.446 34.6834 457.446 37.5783C457.446 39.1642 458.843 40.4607 461.637 41.4676C464.457 42.4745 467.855 43.3682 471.833 44.1486C475.835 44.9038 479.85 45.8226 483.878 46.9051C487.906 47.9875 491.317 49.7749 494.111 52.267C496.931 54.734 498.34 57.8178 498.34 61.5183C498.34 66.5782 496.528 70.4801 492.903 73.224C489.303 75.9427 483.123 77.3021 474.362 77.3021L462.921 77.0755C457.761 77.0755 453.103 75.7539 448.95 73.1107C444.796 70.4423 442.719 67.1194 442.719 63.142Z"/>
</mask>
<path d="M155.062 73.375V26.3635C155.062 25.3817 155.414 24.551 156.119 23.8713C156.824 23.1916 157.667 22.8518 158.649 22.8518H202.187C203.168 22.8518 203.999 23.2042 204.679 23.9091C205.384 24.614 205.736 25.4573 205.736 26.439V29.9885C205.736 30.9703 205.384 31.8136 204.679 32.5184C203.999 33.1981 203.168 33.538 202.187 33.538H169.297V44.5262H197.618C198.599 44.5262 199.43 44.8786 200.11 45.5835C200.815 46.2632 201.167 47.0939 201.167 48.0757V51.6251C201.167 52.6069 200.815 53.4502 200.11 54.1551C199.43 54.8347 198.599 55.1746 197.618 55.1746H169.297V66.3139H202.111C203.068 66.3139 203.886 66.6537 204.566 67.3334C205.245 68.0131 205.585 68.8438 205.585 69.8256V73.4505C205.585 74.4323 205.233 75.2756 204.528 75.9805C203.823 76.6602 202.98 77 201.998 77H158.649C157.667 77 156.824 76.6602 156.119 75.9805C155.414 75.2756 155.062 74.4071 155.062 73.375ZM208.228 26.0237C208.102 25.7216 208.039 25.3817 208.039 25.0041C208.039 24.6014 208.253 24.1482 208.681 23.6448C209.134 23.1161 209.802 22.8518 210.683 22.8518H218.952C219.934 22.8518 220.84 23.1916 221.671 23.8713C222.502 24.551 223.093 25.4069 223.446 26.439L233.414 56.3451L242.628 26.439C243.358 24.0475 244.856 22.8518 247.121 22.8518H254.069C256.335 22.8518 257.833 24.0475 258.563 26.439L267.776 56.3451L277.745 26.439C278.097 25.4069 278.689 24.551 279.52 23.8713C280.35 23.1916 281.257 22.8518 282.238 22.8518H290.508C291.364 22.8518 292.006 23.1161 292.434 23.6448C292.887 24.1482 293.113 24.6014 293.113 25.0041C293.113 25.3817 293.063 25.7216 292.962 26.0237L276.121 73.1485C275.19 75.7162 273.377 77 270.684 77H265.208C262.414 77 260.614 75.7162 259.809 73.1485L250.595 44.0731L241.382 73.1485C240.551 75.7162 238.751 77 235.982 77H230.469C227.801 77 226.001 75.7162 225.069 73.1485L208.228 26.0237ZM299.306 26.439C299.306 25.4573 299.658 24.614 300.363 23.9091C301.068 23.2042 301.911 22.8518 302.893 22.8518H333.592C341.119 22.8518 346.67 25.0167 350.245 29.3466C352.233 31.7381 353.228 34.7966 353.228 38.5223C353.228 42.2228 351.528 45.4576 348.13 48.2267C352.963 50.8196 355.38 54.8473 355.38 60.31C355.38 65.7726 353.442 69.9262 349.565 72.7709C345.713 75.5903 340.981 77 335.367 77H302.893C301.911 77 301.068 76.6602 300.363 75.9805C299.658 75.2756 299.306 74.4323 299.306 73.4505V26.439ZM313.542 66.8047H335.14C337.079 66.8047 338.564 66.2257 339.596 65.0678C340.628 63.9098 341.144 62.3239 341.144 60.31C341.144 58.2961 340.628 56.7102 339.596 55.5522C338.564 54.3942 337.079 53.8152 335.14 53.8152H313.542V66.8047ZM313.542 43.8843H333.743C335.329 43.8843 336.601 43.4186 337.557 42.4871C338.514 41.5305 338.992 40.2089 338.992 38.5223C338.992 36.8105 338.514 35.4763 337.557 34.5197C336.601 33.5631 335.329 33.0848 333.743 33.0848H313.542V43.8843ZM363.121 73.5261V26.439C363.121 25.4573 363.473 24.614 364.178 23.9091C364.883 23.2042 365.726 22.8518 366.708 22.8518H373.731C374.764 22.8518 375.619 23.2042 376.299 23.9091C377.004 24.614 377.356 25.4573 377.356 26.439V73.4505C377.356 74.4323 376.991 75.2756 376.261 75.9805C375.556 76.6602 374.713 77 373.731 77H366.708C365.726 77 364.883 76.6727 364.178 76.0182C363.473 75.3385 363.121 74.5078 363.121 73.5261ZM388.194 73.375V26.3635C388.194 25.3817 388.546 24.551 389.251 23.8713C389.956 23.1916 390.799 22.8518 391.781 22.8518H435.318C436.3 22.8518 437.131 23.2042 437.811 23.9091C438.515 24.614 438.868 25.4573 438.868 26.439V29.9885C438.868 30.9703 438.515 31.8136 437.811 32.5184C437.131 33.1981 436.3 33.538 435.318 33.538H402.429V44.5262H430.749C431.731 44.5262 432.562 44.8786 433.242 45.5835C433.946 46.2632 434.299 47.0939 434.299 48.0757V51.6251C434.299 52.6069 433.946 53.4502 433.242 54.1551C432.562 54.8347 431.731 55.1746 430.749 55.1746H402.429V66.3139H435.243C436.199 66.3139 437.018 66.6537 437.697 67.3334C438.377 68.0131 438.717 68.8438 438.717 69.8256V73.4505C438.717 74.4323 438.364 75.2756 437.66 75.9805C436.955 76.6602 436.111 77 435.13 77H391.781C390.799 77 389.956 76.6602 389.251 75.9805C388.546 75.2756 388.194 74.4071 388.194 73.375ZM442.719 63.142C442.719 61.6568 443.16 60.5995 444.041 59.9701C444.922 59.3156 445.778 58.9884 446.609 58.9884H451.102C453.368 58.9884 455.092 60.2219 456.275 62.6889C457.458 65.1559 460.114 66.3894 464.243 66.3894L477.459 66.6537C481.889 66.6537 484.105 65.2062 484.105 62.3113C484.105 60.1212 481.398 58.3968 475.986 57.1381C473.57 56.5591 470.901 55.9927 467.981 55.4389C465.061 54.8599 462.153 54.1425 459.258 53.2866C456.389 52.4307 453.745 51.4237 451.329 50.2657C448.912 49.1078 446.949 47.5218 445.438 45.508C443.953 43.4689 443.21 41.0774 443.21 38.3335C443.21 33.2736 445.01 29.3843 448.61 26.6656C452.21 23.9217 458.402 22.5497 467.188 22.5497L476.779 22.7763C481.94 22.7763 486.584 24.1105 490.713 26.7789C494.866 29.4221 496.943 32.7324 496.943 36.7098C496.943 38.1951 496.503 39.2649 495.621 39.9194C494.74 40.5739 493.897 40.9012 493.092 40.9012H488.598C486.332 40.9012 484.608 39.6677 483.425 37.2007C482.242 34.7085 479.586 33.4624 475.458 33.4624L464.092 33.2359C459.661 33.2359 457.446 34.6834 457.446 37.5783C457.446 39.1642 458.843 40.4607 461.637 41.4676C464.457 42.4745 467.855 43.3682 471.833 44.1486C475.835 44.9038 479.85 45.8226 483.878 46.9051C487.906 47.9875 491.317 49.7749 494.111 52.267C496.931 54.734 498.34 57.8178 498.34 61.5183C498.34 66.5782 496.528 70.4801 492.903 73.224C489.303 75.9427 483.123 77.3021 474.362 77.3021L462.921 77.0755C457.761 77.0755 453.103 75.7539 448.95 73.1107C444.796 70.4423 442.719 67.1194 442.719 63.142Z" fill="white"/>
<path d="M204.679 23.9091L203.959 24.6032L203.965 24.6098L203.972 24.6162L204.679 23.9091ZM169.297 33.538V32.538H168.297V33.538H169.297ZM169.297 44.5262H168.297V45.5262H169.297V44.5262ZM200.11 45.5835L199.39 46.2776L199.403 46.2907L199.416 46.3033L200.11 45.5835ZM200.11 54.1551L199.403 53.4479L200.11 54.1551ZM169.297 55.1746V54.1746H168.297V55.1746H169.297ZM169.297 66.3139H168.297V67.3139H169.297V66.3139ZM204.528 75.9805L205.222 76.7003L205.228 76.694L205.235 76.6876L204.528 75.9805ZM156.119 75.9805L155.412 76.6876L155.418 76.694L155.425 76.7003L156.119 75.9805ZM156.062 73.375V26.3635H154.062V73.375H156.062ZM156.062 26.3635C156.062 25.6525 156.304 25.0818 156.813 24.5912L155.425 23.1515C154.524 24.0202 154.062 25.111 154.062 26.3635H156.062ZM156.813 24.5912C157.331 24.0918 157.925 23.8518 158.649 23.8518V21.8518C157.409 21.8518 156.317 22.2915 155.425 23.1515L156.813 24.5912ZM158.649 23.8518H202.187V21.8518H158.649V23.8518ZM202.187 23.8518C202.898 23.8518 203.468 24.0944 203.959 24.6032L205.399 23.215C204.53 22.3141 203.439 21.8518 202.187 21.8518V23.8518ZM203.972 24.6162C204.492 25.1367 204.736 25.727 204.736 26.439H206.736C206.736 25.1875 206.275 24.0912 205.386 23.202L203.972 24.6162ZM204.736 26.439V29.9885H206.736V26.439H204.736ZM204.736 29.9885C204.736 30.7005 204.492 31.2908 203.972 31.8113L205.386 33.2255C206.275 32.3364 206.736 31.24 206.736 29.9885H204.736ZM203.972 31.8113C203.484 32.299 202.91 32.538 202.187 32.538V34.538C203.427 34.538 204.514 34.0972 205.386 33.2255L203.972 31.8113ZM202.187 32.538H169.297V34.538H202.187V32.538ZM168.297 33.538V44.5262H170.297V33.538H168.297ZM169.297 45.5262H197.618V43.5262H169.297V45.5262ZM197.618 45.5262C198.329 45.5262 198.899 45.7688 199.39 46.2776L200.83 44.8893C199.961 43.9884 198.87 43.5262 197.618 43.5262V45.5262ZM199.416 46.3033C199.924 46.794 200.167 47.3646 200.167 48.0756H202.167C202.167 46.8232 201.705 45.7323 200.804 44.8636L199.416 46.3033ZM200.167 48.0756V51.6251H202.167V48.0756H200.167ZM200.167 51.6251C200.167 52.3371 199.923 52.9274 199.403 53.4479L200.817 54.8622C201.706 53.973 202.167 52.8766 202.167 51.6251H200.167ZM199.403 53.4479C198.915 53.9356 198.341 54.1746 197.618 54.1746V56.1746C198.858 56.1746 199.945 55.7338 200.817 54.8622L199.403 53.4479ZM197.618 54.1746H169.297V56.1746H197.618V54.1746ZM168.297 55.1746V66.3139H170.297V55.1746H168.297ZM169.297 67.3139H202.111V65.3139H169.297V67.3139ZM202.111 67.3139C202.801 67.3139 203.365 67.5473 203.858 68.0405L205.273 66.6263C204.406 65.7601 203.334 65.3139 202.111 65.3139V67.3139ZM203.858 68.0405C204.346 68.5282 204.585 69.1026 204.585 69.8256H206.585C206.585 68.5849 206.144 67.4979 205.273 66.6263L203.858 68.0405ZM204.585 69.8256V73.4505H206.585V69.8256H204.585ZM204.585 73.4505C204.585 74.1626 204.341 74.7528 203.821 75.2734L205.235 76.6876C206.124 75.7984 206.585 74.702 206.585 73.4505H204.585ZM203.834 75.2606C203.316 75.7601 202.721 76 201.998 76V78C203.238 78 204.33 77.5603 205.222 76.7003L203.834 75.2606ZM201.998 76H158.649V78H201.998V76ZM158.649 76C157.925 76 157.331 75.7601 156.813 75.2606L155.425 76.7003C156.317 77.5603 157.409 78 158.649 78V76ZM156.826 75.2734C156.316 74.7633 156.062 74.1524 156.062 73.375H154.062C154.062 74.6619 154.512 75.7879 155.412 76.6876L156.826 75.2734ZM208.228 26.0237L209.17 25.6871L209.161 25.6629L209.151 25.6391L208.228 26.0237ZM208.681 23.6448L207.922 22.994L207.919 22.9971L208.681 23.6448ZM223.446 26.439L224.394 26.1228L224.392 26.1159L223.446 26.439ZM233.414 56.3451L232.466 56.6614L233.452 59.6199L234.37 56.6396L233.414 56.3451ZM242.628 26.439L243.584 26.7335L243.584 26.731L242.628 26.439ZM258.563 26.439L257.606 26.731L257.607 26.7335L258.563 26.439ZM267.776 56.3451L266.82 56.6396L267.739 59.6199L268.725 56.6614L267.776 56.3451ZM277.745 26.439L276.798 26.1159L276.796 26.1228L277.745 26.439ZM292.434 23.6448L291.656 24.274L291.673 24.2943L291.69 24.3137L292.434 23.6448ZM292.962 26.0237L293.904 26.3602L293.908 26.3501L293.911 26.3399L292.962 26.0237ZM276.121 73.1485L277.061 73.4895L277.063 73.485L276.121 73.1485ZM259.809 73.1485L260.763 72.8491L260.762 72.8464L259.809 73.1485ZM250.595 44.0731L251.549 43.771L250.595 40.7627L249.642 43.771L250.595 44.0731ZM241.382 73.1485L242.333 73.4563L242.335 73.4505L241.382 73.1485ZM225.069 73.1485L224.128 73.485L224.129 73.4895L225.069 73.1485ZM209.151 25.6391C209.083 25.4761 209.039 25.2698 209.039 25.0041H207.039C207.039 25.4937 207.121 25.967 207.305 26.4083L209.151 25.6391ZM209.039 25.0041C209.039 24.9495 209.077 24.7229 209.443 24.2924L207.919 22.9971C207.429 23.5736 207.039 24.2532 207.039 25.0041H209.039ZM209.441 24.2956C209.655 24.045 210.01 23.8518 210.683 23.8518V21.8518C209.593 21.8518 208.614 22.1872 207.922 22.994L209.441 24.2956ZM210.683 23.8518H218.952V21.8518H210.683V23.8518ZM218.952 23.8518C219.681 23.8518 220.368 24.0972 221.038 24.6453L222.304 23.0974C221.313 22.2861 220.187 21.8518 218.952 21.8518V23.8518ZM221.038 24.6453C221.722 25.2049 222.206 25.9036 222.499 26.7622L224.392 26.1159C223.98 24.9102 223.282 23.8972 222.304 23.0974L221.038 24.6453ZM222.497 26.7553L232.466 56.6614L234.363 56.0289L224.394 26.1228L222.497 26.7553ZM234.37 56.6396L243.584 26.7335L241.672 26.1446L232.459 56.0507L234.37 56.6396ZM243.584 26.731C243.908 25.67 244.373 24.9688 244.923 24.5301C245.463 24.0984 246.172 23.8518 247.121 23.8518V21.8518C245.805 21.8518 244.632 22.2031 243.675 22.9671C242.727 23.7241 242.078 24.8166 241.671 26.1471L243.584 26.731ZM247.121 23.8518H254.069V21.8518H247.121V23.8518ZM254.069 23.8518C255.018 23.8518 255.727 24.0984 256.268 24.5301C256.817 24.9688 257.282 25.67 257.606 26.731L259.519 26.1471C259.113 24.8166 258.464 23.7241 257.516 22.9671C256.559 22.2031 255.386 21.8518 254.069 21.8518V23.8518ZM257.607 26.7335L266.82 56.6396L268.732 56.0507L259.518 26.1446L257.607 26.7335ZM268.725 56.6614L278.694 26.7553L276.796 26.1228L266.827 56.0289L268.725 56.6614ZM278.691 26.7622C278.984 25.9036 279.469 25.2049 280.153 24.6453L278.886 23.0974C277.909 23.8972 277.21 24.9102 276.799 26.1159L278.691 26.7622ZM280.153 24.6453C280.823 24.0972 281.509 23.8518 282.238 23.8518V21.8518C281.004 21.8518 279.878 22.2861 278.886 23.0974L280.153 24.6453ZM282.238 23.8518H290.508V21.8518H282.238V23.8518ZM290.508 23.8518C291.147 23.8518 291.466 24.0389 291.656 24.274L293.211 23.0156C292.545 22.1934 291.58 21.8518 290.508 21.8518V23.8518ZM291.69 24.3137C292.083 24.7497 292.113 24.9695 292.113 25.0041H294.113C294.113 24.2333 293.691 23.5468 293.177 22.9758L291.69 24.3137ZM292.113 25.0041C292.113 25.2937 292.075 25.5243 292.014 25.7074L293.911 26.3399C294.051 25.9189 294.113 25.4698 294.113 25.0041H292.113ZM292.021 25.6871L275.179 72.8119L277.063 73.485L293.904 26.3602L292.021 25.6871ZM275.181 72.8074C274.769 73.9443 274.19 74.7216 273.485 75.2211C272.781 75.7198 271.868 76 270.684 76V78C272.193 78 273.533 77.6383 274.641 76.8531C275.749 76.0688 276.542 74.9203 277.061 73.4895L275.181 72.8074ZM270.684 76H265.208V78H270.684V76ZM265.208 76C263.964 76 263.034 75.7155 262.344 75.223C261.657 74.733 261.115 73.9715 260.763 72.8491L258.855 73.4478C259.308 74.8931 260.069 76.0574 261.182 76.8512C262.292 77.6426 263.658 78 265.208 78V76ZM260.762 72.8464L251.549 43.771L249.642 44.3751L258.855 73.4505L260.762 72.8464ZM249.642 43.771L240.428 72.8464L242.335 73.4505L251.549 44.3751L249.642 43.771ZM240.43 72.8406C240.066 73.9663 239.518 74.7311 238.828 75.223C238.136 75.7165 237.211 76 235.982 76V78C237.522 78 238.881 77.6416 239.989 76.8512C241.1 76.0593 241.867 74.8983 242.333 73.4563L240.43 72.8406ZM235.982 76H230.469V78H235.982V76ZM230.469 76C229.299 76 228.396 75.7208 227.699 75.223C226.999 74.7239 226.422 73.9461 226.009 72.8074L224.129 73.4895C224.648 74.9185 225.437 76.0665 226.537 76.8512C227.639 77.6373 228.971 78 230.469 78V76ZM226.011 72.8119L209.17 25.6871L207.287 26.3602L224.128 73.485L226.011 72.8119ZM350.245 29.3466L349.473 29.9832L349.476 29.986L350.245 29.3466ZM348.13 48.2267L347.498 47.4515L346.336 48.3989L347.657 49.1079L348.13 48.2267ZM349.565 72.7709L350.156 73.5778L350.156 73.5771L349.565 72.7709ZM300.363 75.9805L299.656 76.6876L299.663 76.694L299.669 76.7003L300.363 75.9805ZM313.542 66.8047H312.542V67.8047H313.542V66.8047ZM313.542 53.8152V52.8152H312.542V53.8152H313.542ZM313.542 43.8843H312.542V44.8843H313.542V43.8843ZM337.557 42.4871L338.255 43.2037L338.264 43.1942L337.557 42.4871ZM313.542 33.0848V32.0848H312.542V33.0848H313.542ZM300.306 26.439C300.306 25.727 300.55 25.1367 301.07 24.6162L299.656 23.202C298.767 24.0912 298.306 25.1875 298.306 26.439H300.306ZM301.07 24.6162C301.591 24.0956 302.181 23.8518 302.893 23.8518V21.8518C301.642 21.8518 300.545 22.3128 299.656 23.202L301.07 24.6162ZM302.893 23.8518H333.592V21.8518H302.893V23.8518ZM333.592 23.8518C340.929 23.8518 346.148 25.9556 349.473 29.9832L351.016 28.7099C347.192 24.0779 341.309 21.8518 333.592 21.8518V23.8518ZM349.476 29.986C351.287 32.164 352.228 34.982 352.228 38.5223H354.228C354.228 34.6112 353.18 31.3121 351.013 28.7072L349.476 29.986ZM352.228 38.5223C352.228 41.8654 350.712 44.8333 347.498 47.4515L348.762 49.0019C352.345 46.0819 354.228 42.5802 354.228 38.5223H352.228ZM347.657 49.1079C349.942 50.3335 351.609 51.8718 352.71 53.7067C353.811 55.5413 354.38 57.7299 354.38 60.31H356.38C356.38 57.4274 355.741 54.8708 354.425 52.6777C353.109 50.4848 351.151 48.7127 348.603 47.3455L347.657 49.1079ZM354.38 60.31C354.38 65.5039 352.556 69.336 348.973 71.9646L350.156 73.5771C354.328 70.5165 356.38 66.0413 356.38 60.31H354.38ZM348.974 71.9639C345.323 74.6369 340.807 76 335.367 76V78C341.154 78 346.104 76.5437 350.156 73.5778L348.974 71.9639ZM335.367 76H302.893V78H335.367V76ZM302.893 76C302.17 76 301.575 75.7601 301.057 75.2606L299.669 76.7003C300.561 77.5603 301.653 78 302.893 78V76ZM301.07 75.2734C300.55 74.7528 300.306 74.1626 300.306 73.4505H298.306C298.306 74.702 298.767 75.7984 299.656 76.6876L301.07 75.2734ZM300.306 73.4505V26.439H298.306V73.4505H300.306ZM313.542 67.8047H335.14V65.8047H313.542V67.8047ZM335.14 67.8047C337.287 67.8047 339.075 67.1552 340.343 65.7331L338.85 64.4024C338.053 65.2963 336.87 65.8047 335.14 65.8047V67.8047ZM340.343 65.7331C341.582 64.3428 342.144 62.4942 342.144 60.31H340.144C340.144 62.1535 339.675 63.4768 338.85 64.4024L340.343 65.7331ZM342.144 60.31C342.144 58.1257 341.582 56.2772 340.343 54.8868L338.85 56.2176C339.675 57.1432 340.144 58.4664 340.144 60.31H342.144ZM340.343 54.8868C339.075 53.4648 337.287 52.8152 335.14 52.8152V54.8152C336.87 54.8152 338.053 55.3236 338.85 56.2176L340.343 54.8868ZM335.14 52.8152H313.542V54.8152H335.14V52.8152ZM312.542 53.8152V66.8047H314.542V53.8152H312.542ZM313.542 44.8843H333.743V42.8843H313.542V44.8843ZM333.743 44.8843C335.537 44.8843 337.077 44.3503 338.255 43.2036L336.859 41.7707C336.124 42.4868 335.121 42.8843 333.743 42.8843V44.8843ZM338.264 43.1942C339.452 42.0063 339.992 40.405 339.992 38.5223H337.992C337.992 40.0129 337.575 41.0548 336.85 41.78L338.264 43.1942ZM339.992 38.5223C339.992 36.6193 339.455 35.0033 338.264 33.8126L336.85 35.2268C337.572 35.9493 337.992 37.0017 337.992 38.5223H339.992ZM338.264 33.8126C337.088 32.6363 335.545 32.0848 333.743 32.0848V34.0848C335.113 34.0848 336.113 34.49 336.85 35.2268L338.264 33.8126ZM333.743 32.0848H313.542V34.0848H333.743V32.0848ZM312.542 33.0848V43.8843H314.542V33.0848H312.542ZM376.299 23.9091L375.579 24.6032L375.586 24.6098L375.592 24.6162L376.299 23.9091ZM376.261 75.9805L376.955 76.7003L376.956 76.6999L376.261 75.9805ZM364.178 76.0182L363.484 76.7381L363.491 76.7446L363.498 76.751L364.178 76.0182ZM364.121 73.5261V26.439H362.121V73.5261H364.121ZM364.121 26.439C364.121 25.727 364.365 25.1367 364.885 24.6162L363.471 23.202C362.582 24.0912 362.121 25.1875 362.121 26.439H364.121ZM364.885 24.6162C365.406 24.0956 365.996 23.8518 366.708 23.8518V21.8518C365.456 21.8518 364.36 22.3128 363.471 23.202L364.885 24.6162ZM366.708 23.8518H373.731V21.8518H366.708V23.8518ZM373.731 23.8518C374.508 23.8518 375.099 24.1053 375.579 24.6032L377.019 23.215C376.14 22.3031 375.019 21.8518 373.731 21.8518V23.8518ZM375.592 24.6162C376.113 25.1367 376.356 25.727 376.356 26.439H378.356C378.356 25.1875 377.895 24.0912 377.006 23.202L375.592 24.6162ZM376.356 26.439V73.4505H378.356V26.439H376.356ZM376.356 73.4505C376.356 74.1509 376.109 74.7375 375.567 75.2611L376.956 76.6999C377.874 75.8137 378.356 74.7137 378.356 73.4505H376.356ZM375.567 75.2606C375.049 75.7601 374.455 76 373.731 76V78C374.971 78 376.064 77.5603 376.955 76.7003L375.567 75.2606ZM373.731 76H366.708V78H373.731V76ZM366.708 76C365.973 76 365.374 75.7643 364.859 75.2854L363.498 76.751C364.392 77.5812 365.48 78 366.708 78V76ZM364.872 75.2984C364.363 74.8077 364.121 74.2371 364.121 73.5261H362.121C362.121 74.7785 362.583 75.8694 363.484 76.7381L364.872 75.2984ZM437.811 23.9091L437.091 24.6032L437.097 24.6098L437.103 24.6162L437.811 23.9091ZM402.429 33.538V32.538H401.429V33.538H402.429ZM402.429 44.5262H401.429V45.5262H402.429V44.5262ZM433.242 45.5835L432.522 46.2776L432.534 46.2907L432.547 46.3033L433.242 45.5835ZM433.242 54.1551L432.534 53.4479L433.242 54.1551ZM402.429 55.1746V54.1746H401.429V55.1746H402.429ZM402.429 66.3139H401.429V67.3139H402.429V66.3139ZM437.66 75.9805L438.354 76.7003L438.36 76.694L438.367 76.6876L437.66 75.9805ZM389.251 75.9805L388.544 76.6876L388.55 76.694L388.557 76.7003L389.251 75.9805ZM389.194 73.375V26.3635H387.194V73.375H389.194ZM389.194 26.3635C389.194 25.6525 389.436 25.0818 389.945 24.5912L388.557 23.1515C387.656 24.0202 387.194 25.111 387.194 26.3635H389.194ZM389.945 24.5912C390.463 24.0918 391.057 23.8518 391.781 23.8518V21.8518C390.541 21.8518 389.449 22.2915 388.557 23.1515L389.945 24.5912ZM391.781 23.8518H435.318V21.8518H391.781V23.8518ZM435.318 23.8518C436.029 23.8518 436.6 24.0944 437.091 24.6032L438.53 23.215C437.662 22.3141 436.571 21.8518 435.318 21.8518V23.8518ZM437.103 24.6162C437.624 25.1367 437.868 25.727 437.868 26.439H439.868C439.868 25.1875 439.407 24.0912 438.518 23.202L437.103 24.6162ZM437.868 26.439V29.9885H439.868V26.439H437.868ZM437.868 29.9885C437.868 30.7005 437.624 31.2908 437.103 31.8113L438.518 33.2255C439.407 32.3364 439.868 31.24 439.868 29.9885H437.868ZM437.103 31.8113C436.616 32.299 436.041 32.538 435.318 32.538V34.538C436.559 34.538 437.646 34.0972 438.518 33.2255L437.103 31.8113ZM435.318 32.538H402.429V34.538H435.318V32.538ZM401.429 33.538V44.5262H403.429V33.538H401.429ZM402.429 45.5262H430.749V43.5262H402.429V45.5262ZM430.749 45.5262C431.46 45.5262 432.031 45.7688 432.522 46.2776L433.961 44.8893C433.093 43.9884 432.002 43.5262 430.749 43.5262V45.5262ZM432.547 46.3033C433.056 46.794 433.299 47.3646 433.299 48.0756H435.299C435.299 46.8232 434.837 45.7323 433.936 44.8636L432.547 46.3033ZM433.299 48.0756V51.6251H435.299V48.0756H433.299ZM433.299 51.6251C433.299 52.3371 433.055 52.9274 432.534 53.4479L433.949 54.8622C434.838 53.973 435.299 52.8766 435.299 51.6251H433.299ZM432.534 53.4479C432.047 53.9356 431.472 54.1746 430.749 54.1746V56.1746C431.99 56.1746 433.077 55.7338 433.949 54.8622L432.534 53.4479ZM430.749 54.1746H402.429V56.1746H430.749V54.1746ZM401.429 55.1746V66.3139H403.429V55.1746H401.429ZM402.429 67.3139H435.243V65.3139H402.429V67.3139ZM435.243 67.3139C435.933 67.3139 436.497 67.5473 436.99 68.0405L438.404 66.6263C437.538 65.7601 436.466 65.3139 435.243 65.3139V67.3139ZM436.99 68.0405C437.478 68.5282 437.717 69.1026 437.717 69.8256H439.717C439.717 68.5849 439.276 67.4979 438.404 66.6263L436.99 68.0405ZM437.717 69.8256V73.4505H439.717V69.8256H437.717ZM437.717 73.4505C437.717 74.1626 437.473 74.7528 436.952 75.2734L438.367 76.6876C439.256 75.7984 439.717 74.702 439.717 73.4505H437.717ZM436.965 75.2606C436.447 75.7601 435.853 76 435.13 76V78C436.37 78 437.462 77.5603 438.354 76.7003L436.965 75.2606ZM435.13 76H391.781V78H435.13V76ZM391.781 76C391.057 76 390.463 75.7601 389.945 75.2606L388.557 76.7003C389.449 77.5603 390.541 78 391.781 78V76ZM389.958 75.2734C389.448 74.7633 389.194 74.1524 389.194 73.375H387.194C387.194 74.6619 387.644 75.7879 388.544 76.6876L389.958 75.2734ZM444.041 59.9701L444.622 60.7839L444.63 60.7784L444.637 60.7729L444.041 59.9701ZM456.275 62.6889L457.177 62.2564L456.275 62.6889ZM464.243 66.3894L464.263 65.3896L464.253 65.3894H464.243V66.3894ZM477.459 66.6537L477.439 67.6535L477.449 67.6537H477.459V66.6537ZM475.986 57.1381L475.753 58.1106L475.76 58.1121L475.986 57.1381ZM467.981 55.4389L467.786 56.4198L467.795 56.4214L467.981 55.4389ZM459.258 53.2866L458.973 54.2449L458.975 54.2455L459.258 53.2866ZM445.438 45.508L444.63 46.0968L444.638 46.108L445.438 45.508ZM448.61 26.6656L449.213 27.4636L449.216 27.4609L448.61 26.6656ZM467.188 22.5497L467.212 21.55L467.2 21.5497H467.188V22.5497ZM476.779 22.7763L476.756 23.776L476.767 23.7763H476.779V22.7763ZM490.713 26.7789L490.17 27.6187L490.176 27.6225L490.713 26.7789ZM483.425 37.2007L482.522 37.6296L482.523 37.6331L483.425 37.2007ZM475.458 33.4624L475.438 34.4622L475.448 34.4624H475.458V33.4624ZM464.092 33.2359L464.112 32.2361L464.102 32.2359H464.092V33.2359ZM461.637 41.4676L461.298 42.4084L461.301 42.4094L461.637 41.4676ZM471.833 44.1486L471.64 45.1299L471.647 45.1312L471.833 44.1486ZM494.111 52.267L493.445 53.0134L493.453 53.0196L494.111 52.267ZM492.903 73.224L493.505 74.022L493.506 74.0213L492.903 73.224ZM474.362 77.3021L474.343 78.3019L474.353 78.3021H474.362V77.3021ZM462.921 77.0755L462.941 76.0757L462.931 76.0755H462.921V77.0755ZM448.95 73.1107L448.409 73.952L448.413 73.9544L448.95 73.1107ZM443.719 63.142C443.719 61.8497 444.094 61.1609 444.622 60.7839L443.46 59.1564C442.225 60.038 441.719 61.4638 441.719 63.142H443.719ZM444.637 60.7729C445.401 60.2055 446.053 59.9884 446.609 59.9884V57.9884C445.503 57.9884 444.443 58.4257 443.445 59.1674L444.637 60.7729ZM446.609 59.9884H451.102V57.9884H446.609V59.9884ZM451.102 59.9884C452.041 59.9884 452.832 60.24 453.513 60.7268C454.204 61.2212 454.834 61.9967 455.374 63.1213L457.177 62.2564C456.533 60.914 455.71 59.8393 454.676 59.1002C453.633 58.3535 452.428 57.9884 451.102 57.9884V59.9884ZM455.374 63.1213C456.801 66.0969 459.949 67.3894 464.243 67.3894V65.3894C460.279 65.3894 458.116 64.2148 457.177 62.2564L455.374 63.1213ZM464.223 67.3892L477.439 67.6535L477.479 65.6539L464.263 65.3896L464.223 67.3892ZM477.459 67.6537C479.751 67.6537 481.644 67.285 482.99 66.4052C484.411 65.4771 485.105 64.0587 485.105 62.3113H483.105C483.105 63.4588 482.691 64.2116 481.896 64.7309C481.027 65.2986 479.597 65.6537 477.459 65.6537V67.6537ZM485.105 62.3113C485.105 60.7327 484.109 59.4858 482.612 58.5321C481.119 57.5802 478.961 56.8032 476.213 56.1641L475.76 58.1121C478.424 58.7317 480.325 59.4462 481.538 60.2187C482.747 60.9894 483.105 61.6997 483.105 62.3113H485.105ZM476.219 56.1656C473.784 55.5823 471.1 55.0126 468.167 54.4564L467.795 56.4214C470.702 56.9728 473.355 57.5359 475.753 58.1106L476.219 56.1656ZM468.175 54.458C465.286 53.885 462.408 53.1749 459.542 52.3276L458.975 54.2455C461.899 55.11 464.836 55.8348 467.786 56.4198L468.175 54.458ZM459.544 52.3283C456.719 51.4856 454.125 50.4968 451.761 49.3639L450.897 51.1676C453.366 52.3506 456.058 53.3757 458.973 54.2449L459.544 52.3283ZM451.761 49.3639C449.48 48.2709 447.646 46.7848 446.238 44.908L444.638 46.108C446.251 48.2589 448.344 49.9447 450.897 51.1676L451.761 49.3639ZM446.246 44.9192C444.897 43.0663 444.21 40.8854 444.21 38.3335H442.21C442.21 41.2694 443.009 43.8715 444.63 46.0967L446.246 44.9192ZM444.21 38.3335C444.21 33.5435 445.896 29.9684 449.213 27.4636L448.007 25.8676C444.124 28.8002 442.21 33.0038 442.21 38.3335H444.21ZM449.216 27.4609C452.541 24.9268 458.446 23.5497 467.188 23.5497V21.5497C458.359 21.5497 451.879 22.9166 448.004 25.8703L449.216 27.4609ZM467.164 23.5494L476.756 23.776L476.803 21.7766L467.212 21.55L467.164 23.5494ZM476.779 23.7763C481.757 23.7763 486.211 25.0602 490.17 27.6187L491.255 25.939C486.957 23.1607 482.122 21.7763 476.779 21.7763V23.7763ZM490.176 27.6225C494.12 30.1323 495.943 33.1582 495.943 36.7098H497.943C497.943 32.3066 495.613 28.7119 491.25 25.9352L490.176 27.6225ZM495.943 36.7098C495.943 37.9994 495.569 38.7128 495.025 39.1167L496.218 40.7222C497.436 39.817 497.943 38.3907 497.943 36.7098H495.943ZM495.025 39.1167C494.255 39.6888 493.617 39.9012 493.092 39.9012V41.9012C494.178 41.9012 495.226 41.4591 496.218 40.7222L495.025 39.1167ZM493.092 39.9012H488.598V41.9012H493.092V39.9012ZM488.598 39.9012C487.659 39.9012 486.868 39.6496 486.187 39.1627C485.496 38.6684 484.866 37.8928 484.327 36.7683L482.523 37.6331C483.167 38.9756 483.99 40.0502 485.024 40.7894C486.068 41.5361 487.272 41.9012 488.598 41.9012V39.9012ZM484.328 36.7718C482.904 33.7707 479.756 32.4624 475.458 32.4624V34.4624C479.416 34.4624 481.58 35.6464 482.522 37.6296L484.328 36.7718ZM475.477 32.4626L464.112 32.2361L464.072 34.2357L475.438 34.4622L475.477 32.4626ZM464.092 32.2359C461.799 32.2359 459.907 32.6045 458.56 33.4843C457.14 34.4124 456.446 35.8308 456.446 37.5783H458.446C458.446 36.4308 458.859 35.678 459.654 35.1586C460.523 34.5909 461.953 34.2359 464.092 34.2359V32.2359ZM456.446 37.5783C456.446 38.7049 456.956 39.677 457.814 40.4731C458.65 41.2495 459.838 41.8821 461.298 42.4084L461.976 40.5268C460.643 40.0462 459.734 39.5271 459.174 39.007C458.635 38.5067 458.446 38.0376 458.446 37.5783H456.446ZM461.301 42.4094C464.18 43.4377 467.63 44.343 471.64 45.1299L472.025 43.1673C468.081 42.3934 464.733 41.5114 461.974 40.5259L461.301 42.4094ZM471.647 45.1312C475.624 45.8816 479.615 46.7948 483.619 47.8708L484.138 45.9394C480.086 44.8505 476.046 43.9259 472.018 43.1659L471.647 45.1312ZM483.619 47.8708C487.513 48.9175 490.78 50.6363 493.445 53.0133L494.777 51.5207C491.853 48.9134 488.299 47.0576 484.138 45.9394L483.619 47.8708ZM493.453 53.0196C496.058 55.2994 497.34 58.1102 497.34 61.5183H499.34C499.34 57.5254 497.803 54.1686 494.77 51.5145L493.453 53.0196ZM497.34 61.5183C497.34 66.3056 495.644 69.895 492.299 72.4266L493.506 74.0213C497.412 71.0651 499.34 66.8507 499.34 61.5183H497.34ZM492.3 72.426C488.974 74.9376 483.079 76.3021 474.362 76.3021V78.3021C483.166 78.3021 489.631 76.9478 493.505 74.022L492.3 72.426ZM474.382 76.3023L462.941 76.0757L462.901 78.0753L474.343 78.3019L474.382 76.3023ZM462.921 76.0755C457.941 76.0755 453.472 74.8031 449.487 72.267L448.413 73.9544C452.735 76.7047 457.58 78.0755 462.921 78.0755V76.0755ZM449.49 72.2693C445.544 69.7342 443.719 66.6947 443.719 63.142H441.719C441.719 67.5441 444.048 71.1505 448.409 73.952L449.49 72.2693Z" fill="black" mask="url(#path-9-outside-1_3804_139)"/>
</g>
</g>
<defs>
<filter id="filter0_d_3804_139" x="1.39941" y="19.2119" width="500.94" height="68.0928" filterUnits="userSpaceOnUse" color-interpolation-filters="sRGB">
<feFlood flood-opacity="0" result="BackgroundImageFix"/>
<feColorMatrix in="SourceAlpha" type="matrix" values="0 0 0 0 0 0 0 0 0 0 0 0 0 0 0 0 0 0 127 0" result="hardAlpha"/>
<feOffset dy="4"/>
<feGaussianBlur stdDeviation="2"/>
<feComposite in2="hardAlpha" operator="out"/>
<feColorMatrix type="matrix" values="0 0 0 0 0 0 0 0 0 0 0 0 0 0 0 0 0 0 0.25 0"/>
<feBlend mode="normal" in2="BackgroundImageFix" result="effect1_dropShadow_3804_139"/>
<feBlend mode="normal" in="SourceGraphic" in2="effect1_dropShadow_3804_139" result="shape"/>
</filter>
<filter id="filter1_d_3804_139" x="151.062" y="22.5498" width="351.278" height="62.752" filterUnits="userSpaceOnUse" color-interpolation-filters="sRGB">
<feFlood flood-opacity="0" result="BackgroundImageFix"/>
<feColorMatrix in="SourceAlpha" type="matrix" values="0 0 0 0 0 0 0 0 0 0 0 0 0 0 0 0 0 0 127 0" result="hardAlpha"/>
<feOffset dy="4"/>
<feGaussianBlur stdDeviation="2"/>
<feComposite in2="hardAlpha" operator="out"/>
<feColorMatrix type="matrix" values="0 0 0 0 0 0 0 0 0 0 0 0 0 0 0 0 0 0 0.25 0"/>
<feBlend mode="normal" in2="BackgroundImageFix" result="effect1_dropShadow_3804_139"/>
<feBlend mode="normal" in="SourceGraphic" in2="effect1_dropShadow_3804_139" result="shape"/>
</filter>
</defs>
</svg>
